<mxfile host="Electron" agent="Mozilla/5.0 (Windows NT 10.0; Win64; x64) AppleWebKit/537.36 (KHTML, like Gecko) draw.io/24.7.8 Chrome/128.0.6613.36 Electron/32.0.1 Safari/537.36" version="24.7.8">
  <diagram name="第 1 页" id="qjwW_KonaDnB5KHRUpiS">
    <mxGraphModel dx="794" dy="511" grid="1" gridSize="10" guides="1" tooltips="1" connect="1" arrows="1" fold="1" page="1" pageScale="1" pageWidth="827" pageHeight="1169" math="0" shadow="0">
      <root>
        <mxCell id="0" />
        <mxCell id="1" parent="0" />
        <mxCell id="6ghIw1SyPoqlYEQucP9b-2" value="&lt;div&gt;&lt;b style=&quot;background-color: initial;&quot;&gt;SecurityManager&lt;/b&gt;&lt;br&gt;&lt;/div&gt;" style="rounded=1;whiteSpace=wrap;html=1;fillColor=#dae8fc;strokeColor=#6c8ebf;" vertex="1" parent="1">
          <mxGeometry x="105" y="240" width="150" height="90" as="geometry" />
        </mxCell>
        <mxCell id="6ghIw1SyPoqlYEQucP9b-4" style="rounded=0;orthogonalLoop=1;jettySize=auto;html=1;exitX=0.5;exitY=1;exitDx=0;exitDy=0;entryX=0.5;entryY=0;entryDx=0;entryDy=0;" edge="1" parent="1" source="6ghIw1SyPoqlYEQucP9b-3" target="6ghIw1SyPoqlYEQucP9b-2">
          <mxGeometry relative="1" as="geometry" />
        </mxCell>
        <mxCell id="6ghIw1SyPoqlYEQucP9b-3" value="&lt;div&gt;&lt;b&gt;Subject&lt;/b&gt;&lt;/div&gt;" style="rounded=1;whiteSpace=wrap;html=1;fillColor=#fff2cc;strokeColor=#d6b656;" vertex="1" parent="1">
          <mxGeometry x="40" y="110" width="80" height="50" as="geometry" />
        </mxCell>
        <mxCell id="6ghIw1SyPoqlYEQucP9b-7" style="rounded=0;orthogonalLoop=1;jettySize=auto;html=1;exitX=0.5;exitY=1;exitDx=0;exitDy=0;entryX=0.5;entryY=0;entryDx=0;entryDy=0;" edge="1" parent="1" source="6ghIw1SyPoqlYEQucP9b-5" target="6ghIw1SyPoqlYEQucP9b-2">
          <mxGeometry relative="1" as="geometry" />
        </mxCell>
        <mxCell id="6ghIw1SyPoqlYEQucP9b-5" value="&lt;div&gt;&lt;b&gt;Subject&lt;/b&gt;&lt;/div&gt;" style="rounded=1;whiteSpace=wrap;html=1;fillColor=#fff2cc;strokeColor=#d6b656;" vertex="1" parent="1">
          <mxGeometry x="140" y="110" width="80" height="50" as="geometry" />
        </mxCell>
        <mxCell id="6ghIw1SyPoqlYEQucP9b-9" style="rounded=0;orthogonalLoop=1;jettySize=auto;html=1;exitX=0.5;exitY=1;exitDx=0;exitDy=0;entryX=0.5;entryY=0;entryDx=0;entryDy=0;" edge="1" parent="1" source="6ghIw1SyPoqlYEQucP9b-8" target="6ghIw1SyPoqlYEQucP9b-2">
          <mxGeometry relative="1" as="geometry" />
        </mxCell>
        <mxCell id="6ghIw1SyPoqlYEQucP9b-8" value="&lt;div&gt;&lt;b&gt;Subject&lt;/b&gt;&lt;/div&gt;" style="rounded=1;whiteSpace=wrap;html=1;fillColor=#fff2cc;strokeColor=#d6b656;" vertex="1" parent="1">
          <mxGeometry x="243.5" y="110" width="80" height="50" as="geometry" />
        </mxCell>
        <mxCell id="6ghIw1SyPoqlYEQucP9b-10" value="1" style="endArrow=open;html=1;endSize=12;startArrow=diamondThin;startSize=14;startFill=0;align=left;verticalAlign=bottom;rounded=0;exitX=1;exitY=0.5;exitDx=0;exitDy=0;entryX=0;entryY=0.5;entryDx=0;entryDy=0;" edge="1" parent="1" source="6ghIw1SyPoqlYEQucP9b-2" target="6ghIw1SyPoqlYEQucP9b-12">
          <mxGeometry x="-1" y="3" relative="1" as="geometry">
            <mxPoint x="280" y="284.65999999999997" as="sourcePoint" />
            <mxPoint x="360" y="285" as="targetPoint" />
          </mxGeometry>
        </mxCell>
        <mxCell id="6ghIw1SyPoqlYEQucP9b-12" value="&lt;div&gt;&lt;b style=&quot;background-color: initial;&quot;&gt;ShiroFilterFactoryBean&lt;/b&gt;&lt;br&gt;&lt;/div&gt;" style="rounded=1;whiteSpace=wrap;html=1;fillColor=#d5e8d4;strokeColor=#82b366;" vertex="1" parent="1">
          <mxGeometry x="350" y="240" width="150" height="90" as="geometry" />
        </mxCell>
        <mxCell id="6ghIw1SyPoqlYEQucP9b-13" value="1" style="endArrow=open;html=1;endSize=12;startArrow=diamondThin;startSize=14;startFill=0;align=left;verticalAlign=bottom;rounded=0;exitX=0;exitY=0.5;exitDx=0;exitDy=0;entryX=1;entryY=0.5;entryDx=0;entryDy=0;edgeStyle=orthogonalEdgeStyle;" edge="1" parent="1" source="6ghIw1SyPoqlYEQucP9b-14" target="6ghIw1SyPoqlYEQucP9b-12">
          <mxGeometry x="-1" y="3" relative="1" as="geometry">
            <mxPoint x="530" y="370" as="sourcePoint" />
            <mxPoint x="655" y="370" as="targetPoint" />
          </mxGeometry>
        </mxCell>
        <mxCell id="6ghIw1SyPoqlYEQucP9b-14" value="&lt;div&gt;&lt;b style=&quot;background-color: initial;&quot;&gt;Map&amp;lt;String, Filter&amp;gt;&lt;/b&gt;&lt;/div&gt;&lt;div&gt;&lt;b style=&quot;background-color: initial;&quot;&gt;filters&lt;/b&gt;&lt;br&gt;&lt;/div&gt;" style="rounded=1;whiteSpace=wrap;html=1;fillColor=#d5e8d4;strokeColor=#82b366;" vertex="1" parent="1">
          <mxGeometry x="580" y="230" width="170" height="40" as="geometry" />
        </mxCell>
        <mxCell id="6ghIw1SyPoqlYEQucP9b-15" value="&lt;div&gt;&lt;b style=&quot;background-color: initial;&quot;&gt;Map&amp;lt;String, String&amp;gt;&lt;/b&gt;&lt;/div&gt;&lt;div&gt;&lt;b style=&quot;background-color: initial;&quot;&gt;filterChainDefinitionMap&lt;/b&gt;&lt;br&gt;&lt;/div&gt;" style="rounded=1;whiteSpace=wrap;html=1;fillColor=#d5e8d4;strokeColor=#82b366;" vertex="1" parent="1">
          <mxGeometry x="580" y="290" width="170" height="50" as="geometry" />
        </mxCell>
        <mxCell id="6ghIw1SyPoqlYEQucP9b-16" value="" style="endArrow=open;html=1;endSize=12;startArrow=diamondThin;startSize=14;startFill=0;align=left;verticalAlign=bottom;rounded=0;exitX=0;exitY=0.5;exitDx=0;exitDy=0;entryX=1;entryY=0.5;entryDx=0;entryDy=0;edgeStyle=orthogonalEdgeStyle;" edge="1" parent="1" source="6ghIw1SyPoqlYEQucP9b-15" target="6ghIw1SyPoqlYEQucP9b-12">
          <mxGeometry x="-1" y="3" relative="1" as="geometry">
            <mxPoint x="580" y="255" as="sourcePoint" />
            <mxPoint x="510" y="295" as="targetPoint" />
          </mxGeometry>
        </mxCell>
        <mxCell id="6ghIw1SyPoqlYEQucP9b-20" style="rounded=0;orthogonalLoop=1;jettySize=auto;html=1;exitX=0.5;exitY=0;exitDx=0;exitDy=0;entryX=0.5;entryY=1;entryDx=0;entryDy=0;" edge="1" parent="1" source="6ghIw1SyPoqlYEQucP9b-17" target="6ghIw1SyPoqlYEQucP9b-2">
          <mxGeometry relative="1" as="geometry" />
        </mxCell>
        <mxCell id="6ghIw1SyPoqlYEQucP9b-17" value="&lt;div&gt;&lt;b&gt;Realm&lt;/b&gt;&lt;/div&gt;" style="rounded=1;whiteSpace=wrap;html=1;fillColor=#f8cecc;strokeColor=#b85450;" vertex="1" parent="1">
          <mxGeometry x="40" y="390" width="80" height="50" as="geometry" />
        </mxCell>
        <mxCell id="6ghIw1SyPoqlYEQucP9b-21" style="rounded=0;orthogonalLoop=1;jettySize=auto;html=1;exitX=0.5;exitY=0;exitDx=0;exitDy=0;entryX=0.5;entryY=1;entryDx=0;entryDy=0;" edge="1" parent="1" source="6ghIw1SyPoqlYEQucP9b-18" target="6ghIw1SyPoqlYEQucP9b-2">
          <mxGeometry relative="1" as="geometry" />
        </mxCell>
        <mxCell id="6ghIw1SyPoqlYEQucP9b-18" value="&lt;b&gt;Realm&lt;/b&gt;" style="rounded=1;whiteSpace=wrap;html=1;fillColor=#f8cecc;strokeColor=#b85450;" vertex="1" parent="1">
          <mxGeometry x="140" y="390" width="80" height="50" as="geometry" />
        </mxCell>
        <mxCell id="6ghIw1SyPoqlYEQucP9b-23" style="rounded=0;orthogonalLoop=1;jettySize=auto;html=1;exitX=0.5;exitY=0;exitDx=0;exitDy=0;entryX=0.5;entryY=1;entryDx=0;entryDy=0;" edge="1" parent="1" source="6ghIw1SyPoqlYEQucP9b-19" target="6ghIw1SyPoqlYEQucP9b-2">
          <mxGeometry relative="1" as="geometry" />
        </mxCell>
        <mxCell id="6ghIw1SyPoqlYEQucP9b-19" value="&lt;b&gt;Realm&lt;/b&gt;" style="rounded=1;whiteSpace=wrap;html=1;fillColor=#f8cecc;strokeColor=#b85450;" vertex="1" parent="1">
          <mxGeometry x="243.5" y="390" width="80" height="50" as="geometry" />
        </mxCell>
      </root>
    </mxGraphModel>
  </diagram>
</mxfile>
